HIERARCHY
ROOT Hips
{
    OFFSET 0.000000 0.000000 0.000000
    CHANNELS 6 Xposition Yposition Zposition Zrotation Xrotation Yrotation
    JOINT Spine
    {
        OFFSET -0.000000 14.517291 0.000000
        CHANNELS 3 Zrotation Xrotation Yrotation
        JOINT Spine1
        {
            OFFSET -0.000000 37.558300 0.000000
            CHANNELS 3 Zrotation Xrotation Yrotation
            JOINT Neck
            {
                OFFSET -0.000000 37.404057 3.400369
                CHANNELS 3 Zrotation Xrotation Yrotation
                JOINT Head
                {
                    OFFSET -0.000000 24.785618 -3.540803
                    CHANNELS 3 Zrotation Xrotation Yrotation
                    End Site
                    {
                        OFFSET -0.000000 35.408028 0.000000
                    }
                }
            }
            JOINT LeftShoulder
            {
                OFFSET 6.992933 33.973492 -0.192664
                CHANNELS 3 Zrotation Xrotation Yrotation
                JOINT LeftArm
                {
                    OFFSET 21.527611 0.000000 0.000000
                    CHANNELS 3 Zrotation Xrotation Yrotation
                    JOINT LeftForeArm
                    {
                        OFFSET 56.353916 0.000000 0.000000
                        CHANNELS 3 Zrotation Xrotation Yrotation
                        JOINT LeftHand
                        {
                            OFFSET 47.774071 0.000000 0.000000
                            CHANNELS 3 Zrotation Xrotation Yrotation
                            End Site
                            {
                                OFFSET 26.556021 0.000000 0.000000
                            }
                        }
                    }
                }
            }
            JOINT RightShoulder
            {
                OFFSET -7.065357 33.973492 -0.192664
                CHANNELS 3 Zrotation Xrotation Yrotation
                JOINT RightArm
                {
                    OFFSET -21.527611 0.000000 0.000000
                    CHANNELS 3 Zrotation Xrotation Yrotation
                    JOINT RightForeArm
                    {
                        OFFSET -56.353916 0.000000 0.000000
                        CHANNELS 3 Zrotation Xrotation Yrotation
                        JOINT RightHand
                        {
                            OFFSET -47.774071 0.000000 0.000000
                            CHANNELS 3 Zrotation Xrotation Yrotation
                            End Site
                            {
                                OFFSET -26.556021 0.000000 0.000000
                            }
                        }
                    }
                }
            }
        }
    }
    JOINT LeftUpLeg
    {
        OFFSET 17.704014 0.000000 0.000000
        CHANNELS 3 Zrotation Xrotation Yrotation
        JOINT LeftLeg
        {
            OFFSET -0.000000 -81.181816 0.000000
            CHANNELS 3 Zrotation Xrotation Yrotation
            JOINT LeftFoot
            {
                OFFSET -0.000000 -62.821102 0.000000
                CHANNELS 3 Zrotation Xrotation Yrotation
                JOINT LeftToeBase
                {
                    OFFSET -0.000000 -11.507608 26.556021
                    CHANNELS 3 Zrotation Xrotation Yrotation
                    End Site
                    {
                        OFFSET -0.000000 0.000000 7.081605
                    }
                }
            }
        }
    }
    JOINT RightUpLeg
    {
        OFFSET -17.704014 0.000000 0.000000
        CHANNELS 3 Zrotation Xrotation Yrotation
        JOINT RightLeg
        {
            OFFSET -0.000000 -81.181816 0.000000
            CHANNELS 3 Zrotation Xrotation Yrotation
            JOINT RightFoot
            {
                OFFSET -0.000000 -62.821102 0.000000
                CHANNELS 3 Zrotation Xrotation Yrotation
                JOINT RightToeBase
                {
                    OFFSET -0.000000 -11.507608 26.556021
                    CHANNELS 3 Zrotation Xrotation Yrotation
                    End Site
                    {
                        OFFSET -0.000000 0.000000 7.081605
                    }
                }
            }
        }
    }
}
MOTION
Frames:    4
Frame Time:    0.008333
68.225624    150.087448    69.149529    6.314581    6.591932    -70.707275    0.943683    2.330983    1.306436    0.638491    0.584288    0.437518    18.777142    3.053199    14.337699    -12.246669    2.888702    11.210320    10.265296    3.287323    -14.539901    -10.576570    -6.011304    -25.667797    15.492658    -2.119364    -49.481567    0.825034    4.751083    -41.915363    -9.490969    -0.464870    -4.088706    30.033375    -21.961794    44.701538    8.727447    -18.937849    106.790092    15.046177    -25.986197    30.870686    31.325235    -38.020191    19.430559    -30.052673    34.360096    5.184532    3.257640    -2.854137    47.602924    0.000000    0.000000    0.000000    -9.561375    -3.670691    -8.745459    5.357851    37.025562    -4.735903    10.780609    -32.502525    -1.111576    0.000000    0.000000    0.000000    
68.364761    150.061172    68.990402    6.271497    6.495105    -70.572372    0.927055    2.287637    1.242420    0.661809    0.592772    0.415725    18.780411    3.123202    14.284231    -12.287472    2.885954    11.160866    10.220100    3.320599    -14.590296    -10.625171    -5.969821    -25.687777    15.456875    -2.121376    -49.494858    0.796323    4.746707    -41.747772    -9.494705    -0.439926    -4.153363    30.122612    -22.071901    44.753395    8.741261    -18.913336    106.826248    15.030601    -25.990763    30.871517    31.130119    -38.036804    19.253111    -29.918642    34.186550    5.112308    3.200681    -2.632219    47.595947    0.000000    0.000000    0.000000    -9.609243    -3.792041    -8.679664    5.473028    37.381241    -4.719648    10.541726    -32.679134    -1.439411    0.000000    0.000000    0.000000    
68.484962    150.044113    68.862274    6.224896    6.385866    -70.445267    0.927960    2.232472    1.186470    0.617840    0.645435    0.396974    18.855080    3.062626    14.270078    -12.333841    3.042548    11.137741    10.247901    3.357377    -14.583327    -10.683442    -5.934813    -25.802555    15.461213    -2.065337    -49.393459    0.824493    4.775948    -41.897278    -9.443084    -0.472448    -4.214561    30.159966    -22.098812    44.752106    8.673606    -19.036884    106.864388    15.068714    -26.020226    30.889988    30.912281    -38.040039    19.059628    -29.791130    34.025524    5.058612    3.143747    -2.433404    47.589077    0.000000    0.000000    0.000000    -9.671044    -3.870764    -8.608537    5.575130    37.672737    -4.745638    10.381473    -32.824760    -1.668849    0.000000    0.000000    0.000000    
68.594193    150.034256    68.749115    6.174795    6.266375    -70.320335    0.911754    2.206857    1.160509    0.590470    0.645666    0.388221    18.875156    3.086713    14.195208    -12.324996    3.080559    11.066069    10.261662    3.418522    -14.652249    -10.715459    -5.908276    -25.865936    15.436210    -2.021900    -49.399830    0.820181    4.811688    -41.717884    -9.390079    -0.479519    -4.275422    30.250360    -22.232430    44.749397    8.678004    -18.988190    106.913895    15.037475    -25.997801    30.883162    30.678452    -38.035389    18.838280    -29.671690    33.859295    5.034011    3.076216    -2.241190    47.581455    0.000000    0.000000    0.000000    -9.743944    -3.927174    -8.550269    5.663635    37.942097    -4.823722    10.266759    -32.944580    -1.812882    0.000000    0.000000    0.000000    
